<?xml version="1.0"?>
<!DOCTYPE svg>
<svg xmlns="http://www.w3.org/2000/svg" xmlns:xlink="http://www.w3.org/1999/xlink" viewBox="0 0 140 140">
    <path stroke="#ccc" stroke-width="12" fill="#fff"
        d="M 20,20 l20,0 l0,-10 l10,0 l0,10 l50,0 l0,-10 l10,0 l0,10 l20,0 l0,100 l-110,0 z
           
           M 35,50 l20,0
           M 65,50 l20,0
           M 95,50 l20,0
           
           M 35,73 l20,0
           M 65,73 l20,0
           M 95,73 l20,0
           
           M 35,95 l20,0
           M 65,95 l20,0
           M 95,95 l20,0 "/>
</svg>